<?xml version="1.0" encoding="UTF-8"?>
<svg xmlns="http://www.w3.org/2000/svg" xmlns:xlink="http://www.w3.org/1999/xlink"
    width="400" height="110" viewBox="-350.0 -55.0 400 110">
<defs>
<path d="M-100,0 L0,0" stroke-width="4.0" stroke="#000000" id="avaQKaTg0" />
<path d="M-200,0 L-100,0" stroke-width="4.0" stroke="#000000" id="avaQKaTg1" />
<path d="M-300,0 L-200,0" stroke-width="4.0" stroke="#000000" id="avaQKaTg2" />
<path d="M-50,25.0 L50,25.0" stroke-width="0" id="avaQKaTg3" />
<path d="M-150,25.0 L-50,25.0" stroke-width="0" id="avaQKaTg4" />
<path d="M-150,0 L-50,0" stroke-width="0" id="avaQKaTg5" />
<path d="M-250,25.0 L-150,25.0" stroke-width="0" id="avaQKaTg6" />
<path d="M-250,0 L-150,0" stroke-width="0" id="avaQKaTg7" />
<path d="M-350,25.0 L-250,25.0" stroke-width="0" id="avaQKaTg8" />
</defs>
<g transform="rotate(0 200.0 55.0)">
<use xlink:href="#avaQKaTg0" />
<text font-size="20.0" text-anchor="middle" fill="#000000" valign="middle"><textPath xlink:href="#avaQKaTg0" startOffset="50%">
<tspan dy="-0.5em">β</tspan>
</textPath></text>
<use xlink:href="#avaQKaTg1" />
<text font-size="20.0" text-anchor="middle" fill="#000000" valign="middle"><textPath xlink:href="#avaQKaTg1" startOffset="50%">
<tspan dy="-0.5em">β 4</tspan>
</textPath></text>
<use xlink:href="#avaQKaTg2" />
<text font-size="20.0" text-anchor="middle" fill="#000000" valign="middle"><textPath xlink:href="#avaQKaTg2" startOffset="50%">
<tspan dy="-0.5em"> 3</tspan>
</textPath></text>
<circle cx="0" cy="0" r="25.0" fill="none" stroke-width="2.0" stroke="none" />
<use xlink:href="#avaQKaTg3" />
<text font-size="17.5" fill="#000000" text-anchor="middle"><textPath xlink:href="#avaQKaTg3" startOffset="50%"></textPath></text>
<path d="M-100,25.0 L-75.0,0 L-100,-25.0 L-125.0,0 Z" fill="white" stroke="#000000" stroke-width="2.0" />
<path d="M-125.0,0 L-100,-25.0 L-75.0,0 L-125.0,0 Z" fill="#0385AE" stroke="#000000" stroke-width="0" />
<path d="M-125.0,0 L-100,-25.0" stroke-width="2.0" stroke="#000000" />
<path d="M-100,-25.0 L-75.0,0" stroke-width="2.0" stroke="#000000" />
<path d="M-75.0,0 L-125.0,0" stroke-width="2.0" stroke="#000000" />
<use xlink:href="#avaQKaTg4" />
<text font-size="17.5" fill="#000000" text-anchor="middle"><textPath xlink:href="#avaQKaTg4" startOffset="50%"></textPath></text>
<use xlink:href="#avaQKaTg5" />
<text font-size="15.0" fill="#000000" text-anchor="middle"><textPath xlink:href="#avaQKaTg5" startOffset="50%"></textPath></text>
<rect x="-225.0" y="-25.0" width="50" height="50" fill="#FCC326" stroke-width="2.0" stroke="#000000" />
<use xlink:href="#avaQKaTg6" />
<text font-size="17.5" fill="#000000" text-anchor="middle"><textPath xlink:href="#avaQKaTg6" startOffset="50%">
<tspan dy="-3.15em">4S</tspan>
</textPath></text>
<use xlink:href="#avaQKaTg7" />
<text font-size="15.0" fill="#000000" text-anchor="middle"><textPath xlink:href="#avaQKaTg7" startOffset="50%"></textPath></text>
<circle cx="-300" cy="0" r="25.0" fill="none" stroke-width="2.0" stroke="none" />
<use xlink:href="#avaQKaTg8" />
<text font-size="17.5" fill="#000000" text-anchor="middle"><textPath xlink:href="#avaQKaTg8" startOffset="50%"></textPath></text>
<g transform="rotate(-0.0 -260.0 0.0)">
<path d="M-260.0,37.5 L-260.0,-37.5" stroke-width="2.0" stroke="#000000" />
<path d="M-261.0,-37.5 L-247.5,-37.5" stroke-width="2.0" stroke="#000000" />
<path d="M-261.0,37.5 L-247.5,37.5" stroke-width="2.0" stroke="#000000" />
</g>
<g transform="rotate(0 -40.0 0.0)">
<path d="M-40.0,37.5 L-40.0,-37.5" stroke-width="2.0" stroke="#000000" />
<path d="M-39.0,-37.5 L-52.5,-37.5" stroke-width="2.0" stroke="#000000" />
<path d="M-39.0,37.5 L-52.5,37.5" stroke-width="2.0" stroke="#000000" />
</g>
<text x="-38.00000000000001" y="52.5" font-size="17.5" text-anchor="start" fill="#000000">n = 2-3</text>
</g>
</svg>