<?xml version="1.0" encoding="UTF-8"?>
<svg xmlns="http://www.w3.org/2000/svg" width="670" height="380.25" viewBox="0 0 670 380.25"><style>svg{background:white}</style>
<g transform="matrix(1 0 0 -1 0 380.25)">
<path d="M -100 0 L 0 0 L -100 0 Z" transform="matrix(1 0 0 -1 635 240.25)" fill="none" stroke="#D9D9D9" stroke-width="4" stroke-linecap="round" stroke-linejoin="round" />
<path d="M -200 0 L -100 0 L -200 0 Z" transform="matrix(1 0 0 -1 635 240.25)" fill="none" stroke="#D9D9D9" stroke-width="4" stroke-linecap="round" stroke-linejoin="round" />
<path d="M -300 -100 L -200 0 L -300 -100 Z" transform="matrix(1 0 0 -1 635 240.25)" fill="none" stroke="#D9D9D9" stroke-width="4" stroke-linecap="round" stroke-linejoin="round" />
<path d="M -300 0 L -200 0 L -300 0 Z" transform="matrix(1 0 0 -1 635 240.25)" fill="none" stroke="#D9D9D9" stroke-width="4" stroke-linecap="round" stroke-linejoin="round" />
<path d="M 0 -100 L 0 0 L 0 -100 Z" transform="matrix(1 0 0 -1 635 240.25)" fill="none" stroke="#D9D9D9" stroke-width="4" />
<path d="M -300 100 L -200 0 L -300 100 Z" transform="matrix(1 0 0 -1 635 240.25)" fill="none" stroke="#D9D9D9" stroke-width="4" stroke-linecap="round" stroke-linejoin="round" />
<path d="M -400 100 L -300 100 L -400 100 Z" transform="matrix(1 0 0 -1 635 240.25)" fill="none" stroke="#D9D9D9" stroke-width="4" stroke-linecap="round" stroke-linejoin="round" />
<path d="M -500 100 L -400 100 L -500 100 Z" transform="matrix(1 0 0 -1 635 240.25)" fill="none" stroke="#1C1917" stroke-width="4" stroke-linecap="round" stroke-linejoin="round" />
<path d="M -600 100 L -500 100 L -600 100 Z" transform="matrix(1 0 0 -1 635 240.25)" fill="none" stroke="#1C1917" stroke-width="4" stroke-linecap="round" stroke-linejoin="round" />
<path d="M -400 -100 L -300 -100 L -400 -100 Z" transform="matrix(1 0 0 -1 635 240.25)" fill="none" stroke="#D9D9D9" stroke-width="4" stroke-linecap="round" stroke-linejoin="round" />
<path d="M -500 -100 L -400 -100 L -500 -100 Z" transform="matrix(1 0 0 -1 635 240.25)" fill="none" stroke="#D9D9D9" stroke-width="4" stroke-linecap="round" stroke-linejoin="round" />
<path d="M -600 -100 L -500 -100 L -600 -100 Z" transform="matrix(1 0 0 -1 635 240.25)" fill="none" stroke="#D9D9D9" stroke-width="4" stroke-linecap="round" stroke-linejoin="round" />
<path d="M -400 200 L -400 100 L -400 200 Z" transform="matrix(1 0 0 -1 635 240.25)" fill="none" stroke="#1C1917" stroke-width="4" />
<path d="M -225 0 C -225 13.8071 -213.8071 25 -200 25 C -186.1929 25 -175 13.8071 -175 0 C -175 -13.8071 -186.1929 -25 -200 -25 C -213.8071 -25 -225 -13.8071 -225 0 Z" transform="matrix(1 0 0 -1 635 240.25)" fill="#CDE9DF" stroke="#D9D9D9" stroke-width="2" />
<path d="M -325 100 C -325 113.8071 -313.8071 125 -300 125 C -286.1929 125 -275 113.8071 -275 100 C -275 86.1929 -286.1929 75 -300 75 C -313.8071 75 -325 86.1929 -325 100 Z" transform="matrix(1 0 0 -1 635 240.25)" fill="#CDE9DF" stroke="#D9D9D9" stroke-width="2" />
<path d="M -525 100 C -525 113.8071 -513.8071 125 -500 125 C -486.1929 125 -475 113.8071 -475 100 C -475 86.1929 -486.1929 75 -500 75 C -513.8071 75 -525 86.1929 -525 100 Z" transform="matrix(1 0 0 -1 635 240.25)" fill="#FCC326" stroke="#1C1917" stroke-width="2" />
<path d="M -325 -100 C -325 -86.1929 -313.8071 -75 -300 -75 C -286.1929 -75 -275 -86.1929 -275 -100 C -275 -113.8071 -286.1929 -125 -300 -125 C -313.8071 -125 -325 -113.8071 -325 -100 Z" transform="matrix(1 0 0 -1 635 240.25)" fill="#CDE9DF" stroke="#D9D9D9" stroke-width="2" />
<path d="M -525 -100 C -525 -86.1929 -513.8071 -75 -500 -75 C -486.1929 -75 -475 -86.1929 -475 -100 C -475 -113.8071 -486.1929 -125 -500 -125 C -513.8071 -125 -525 -113.8071 -525 -100 Z" transform="matrix(1 0 0 -1 635 240.25)" fill="#FFF6DE" stroke="#D9D9D9" stroke-width="2" />
<path d="M -25 -25 L 25 -25 L 25 25 L -25 25 Z" transform="matrix(1 0 0 -1 635 240.25)" fill="#CDE7EF" stroke="#D9D9D9" stroke-width="2" stroke-linejoin="round" />
<path d="M -125 -25 L -75 -25 L -75 25 L -125 25 Z" transform="matrix(1 0 0 -1 635 240.25)" fill="#CDE7EF" stroke="#D9D9D9" stroke-width="2" stroke-linejoin="round" />
<path d="M -425 75 L -375 75 L -375 125 L -425 125 Z" transform="matrix(1 0 0 -1 635 240.25)" fill="#0385AE" stroke="#1C1917" stroke-width="2" stroke-linejoin="round" />
<path d="M -425 -125 L -375 -125 L -375 -75 L -425 -75 Z" transform="matrix(1 0 0 -1 635 240.25)" fill="#CDE7EF" stroke="#D9D9D9" stroke-width="2" stroke-linejoin="round" />
<path d="M -325 -25 L -275 -25 L -275 25 L -325 25 Z" transform="matrix(1 0 0 -1 635 240.25)" fill="#CDE7EF" stroke="#D9D9D9" stroke-width="2" stroke-linejoin="round" />
<path d="M -600 125 L -575 100 L -600 75 L -625 100 Z" transform="matrix(1 0 0 -1 635 240.25)" fill="#A15989" stroke="#1C1917" stroke-width="2" stroke-linejoin="round" />
<path d="M -425 221.6506 L -400 178.3494 L -375 221.6506 L -425 221.6506 Z" transform="matrix(1 0 0 -1 635 240.25)" fill="#C23537" stroke="#1C1917" stroke-width="2" stroke-linejoin="round" />
<path d="M -600 -75 L -575 -100 L -600 -125 L -625 -100 Z" transform="matrix(1 0 0 -1 635 240.25)" fill="#EEF8FB" stroke="#D9D9D9" stroke-width="2" stroke-linejoin="round" />
<path d="M -25 -78.3494 L 0 -121.6506 L 25 -78.3494 L -25 -78.3494 Z" transform="matrix(1 0 0 -1 635 240.25)" fill="#F7E0E0" stroke="#D9D9D9" stroke-width="2" stroke-linejoin="round" />
<path d="M 2.9004 1.6016 L 2.9004 -3.8867 L 1.5234 -3.8867 L 1.5234 10.8105 Q 1.5234 13.0566 2.6855 14.0283 Q 3.8477 15 5.4297 15 Q 7.0508 15 8.0029 14.1357 Q 8.9551 13.2715 8.9551 11.8262 Q 8.9551 9.5703 6.8164 8.7891 Q 8.6914 8.6035 9.8047 7.4512 Q 10.918 6.2988 10.918 4.5117 Q 10.918 2.4707 9.5605 1.0986 Q 8.2031 -0.2734 6.2012 -0.2734 Q 4.1113 -0.2734 2.9004 1.6016 Z M 4.248 7.8613 L 4.248 9.0039 Q 7.5586 9.0918 7.5586 11.6895 Q 7.5586 12.5879 7.0068 13.1494 Q 6.4551 13.7109 5.5371 13.7109 Q 4.2578 13.7109 3.5791 13.0078 Q 2.9004 12.3047 2.9004 10.4883 L 2.9102 4.502 Q 2.9102 2.9199 3.8672 1.9727 Q 4.8242 1.0254 6.1816 1.0254 Q 7.5977 1.0254 8.5596 2.0068 Q 9.5215 2.9883 9.5215 4.4238 Q 9.5215 5.8398 8.5498 6.8506 Q 7.5781 7.8613 4.9316 7.8613 L 4.248 7.8613 Z M 21.4395 14.7266 L 21.7324 14.7266 L 21.7324 4.7168 L 23.4707 4.7168 L 23.4707 3.3398 L 21.7324 3.3398 L 21.7324 0 L 20.2969 0 L 20.2969 3.3398 L 13.4316 3.3398 L 21.4395 14.7266 Z M 20.2969 4.7168 L 20.2969 10.7031 L 16.0684 4.7168 L 20.2969 4.7168 Z" transform="matrix(1 0 0 1 573.4961 250.25)" fill="#D9D9D9" />
<path d="M 2.9004 1.6016 L 2.9004 -3.8867 L 1.5234 -3.8867 L 1.5234 10.8105 Q 1.5234 13.0566 2.6855 14.0283 Q 3.8477 15 5.4297 15 Q 7.0508 15 8.0029 14.1357 Q 8.9551 13.2715 8.9551 11.8262 Q 8.9551 9.5703 6.8164 8.7891 Q 8.6914 8.6035 9.8047 7.4512 Q 10.918 6.2988 10.918 4.5117 Q 10.918 2.4707 9.5605 1.0986 Q 8.2031 -0.2734 6.2012 -0.2734 Q 4.1113 -0.2734 2.9004 1.6016 Z M 4.248 7.8613 L 4.248 9.0039 Q 7.5586 9.0918 7.5586 11.6895 Q 7.5586 12.5879 7.0068 13.1494 Q 6.4551 13.7109 5.5371 13.7109 Q 4.2578 13.7109 3.5791 13.0078 Q 2.9004 12.3047 2.9004 10.4883 L 2.9102 4.502 Q 2.9102 2.9199 3.8672 1.9727 Q 4.8242 1.0254 6.1816 1.0254 Q 7.5977 1.0254 8.5596 2.0068 Q 9.5215 2.9883 9.5215 4.4238 Q 9.5215 5.8398 8.5498 6.8506 Q 7.5781 7.8613 4.9316 7.8613 L 4.248 7.8613 Z M 21.4395 14.7266 L 21.7324 14.7266 L 21.7324 4.7168 L 23.4707 4.7168 L 23.4707 3.3398 L 21.7324 3.3398 L 21.7324 0 L 20.2969 0 L 20.2969 3.3398 L 13.4316 3.3398 L 21.4395 14.7266 Z M 20.2969 4.7168 L 20.2969 10.7031 L 16.0684 4.7168 L 20.2969 4.7168 Z" transform="matrix(1 0 0 1 473.4961 250.25)" fill="#D9D9D9" />
<path d="M 12.1094 10.625 L 12.1094 0 L 10.7617 0 L 10.7617 1.8262 Q 9.9023 0.7812 8.833 0.2539 Q 7.7637 -0.2734 6.4941 -0.2734 Q 4.2383 -0.2734 2.6416 1.3623 Q 1.0449 2.998 1.0449 5.3418 Q 1.0449 7.6367 2.6562 9.2676 Q 4.2676 10.8984 6.5332 10.8984 Q 7.8418 10.8984 8.9014 10.3418 Q 9.9609 9.7852 10.7617 8.6719 L 10.7617 10.625 L 12.1094 10.625 Z M 6.6406 9.5801 Q 5.498 9.5801 4.5312 9.0186 Q 3.5645 8.457 2.9932 7.4414 Q 2.4219 6.4258 2.4219 5.293 Q 2.4219 4.1699 2.998 3.1445 Q 3.5742 2.1191 4.5459 1.5479 Q 5.5176 0.9766 6.6309 0.9766 Q 7.7539 0.9766 8.7598 1.543 Q 9.7656 2.1094 10.3076 3.0762 Q 10.8496 4.043 10.8496 5.2539 Q 10.8496 7.0996 9.6338 8.3398 Q 8.418 9.5801 6.6406 9.5801 Z M 17.3086 11.0352 L 15.8438 11.0352 Q 16.2441 12.8125 17.377 13.7695 Q 18.5098 14.7266 20.0527 14.7266 Q 21.1758 14.7266 22.1475 14.2139 Q 23.1191 13.7012 23.6514 12.832 Q 24.1836 11.9629 24.1836 11.0156 Q 24.1836 9.1602 22.3379 8.0762 Q 23.373 7.6562 24.0371 6.8457 Q 24.9746 5.7031 24.9746 4.2871 Q 24.9746 3.0664 24.3301 1.958 Q 23.6855 0.8496 22.5723 0.2441 Q 21.459 -0.3613 20.082 -0.3613 Q 18.2266 -0.3613 16.9863 0.708 Q 15.7461 1.7773 15.3652 3.8477 L 16.7715 3.8477 Q 17.1426 2.4512 17.8359 1.8262 Q 18.7246 1.0352 20.1016 1.0352 Q 21.6641 1.0352 22.6113 1.9727 Q 23.5586 2.9102 23.5586 4.1699 Q 23.5586 5.0098 23.085 5.7422 Q 22.6113 6.4746 21.8154 6.8457 Q 21.0195 7.2168 19.3496 7.3047 L 19.3496 8.623 Q 20.3359 8.623 21.1465 8.9697 Q 21.957 9.3164 22.3232 9.8535 Q 22.6895 10.3906 22.6895 11.0254 Q 22.6895 11.9629 21.9424 12.6465 Q 21.1953 13.3301 20.0527 13.3301 Q 19.125 13.3301 18.4512 12.8076 Q 17.7773 12.2852 17.3086 11.0352 Z" transform="matrix(0.7071 0.7071 -0.7071 0.7071 369.1799 188.572)" fill="#D9D9D9" />
<path d="M 2.9004 1.6016 L 2.9004 -3.8867 L 1.5234 -3.8867 L 1.5234 10.8105 Q 1.5234 13.0566 2.6855 14.0283 Q 3.8477 15 5.4297 15 Q 7.0508 15 8.0029 14.1357 Q 8.9551 13.2715 8.9551 11.8262 Q 8.9551 9.5703 6.8164 8.7891 Q 8.6914 8.6035 9.8047 7.4512 Q 10.918 6.2988 10.918 4.5117 Q 10.918 2.4707 9.5605 1.0986 Q 8.2031 -0.2734 6.2012 -0.2734 Q 4.1113 -0.2734 2.9004 1.6016 Z M 4.248 7.8613 L 4.248 9.0039 Q 7.5586 9.0918 7.5586 11.6895 Q 7.5586 12.5879 7.0068 13.1494 Q 6.4551 13.7109 5.5371 13.7109 Q 4.2578 13.7109 3.5791 13.0078 Q 2.9004 12.3047 2.9004 10.4883 L 2.9102 4.502 Q 2.9102 2.9199 3.8672 1.9727 Q 4.8242 1.0254 6.1816 1.0254 Q 7.5977 1.0254 8.5596 2.0068 Q 9.5215 2.9883 9.5215 4.4238 Q 9.5215 5.8398 8.5498 6.8506 Q 7.5781 7.8613 4.9316 7.8613 L 4.248 7.8613 Z M 15.2383 9.8633 L 13.8613 9.8633 Q 13.9199 11.9922 15.2822 13.3594 Q 16.6445 14.7266 18.6465 14.7266 Q 20.6289 14.7266 21.8545 13.4473 Q 23.0801 12.168 23.0801 10.4297 Q 23.0801 9.209 22.4941 8.1396 Q 21.9082 7.0703 20.2188 5.2441 L 16.6445 1.3867 L 23.2754 1.3867 L 23.2754 0 L 13.5195 0 L 19.0078 5.9277 Q 20.6777 7.7148 21.1807 8.5791 Q 21.6836 9.4434 21.6836 10.4004 Q 21.6836 11.6113 20.7803 12.4854 Q 19.877 13.3594 18.5684 13.3594 Q 17.1914 13.3594 16.2783 12.4414 Q 15.3652 11.5234 15.2383 9.8633 Z" transform="matrix(1 0 0 1 273.4961 150.25)" fill="#D9D9D9" />
<path d="M 2.9004 1.6016 L 2.9004 -3.8867 L 1.5234 -3.8867 L 1.5234 10.8105 Q 1.5234 13.0566 2.6855 14.0283 Q 3.8477 15 5.4297 15 Q 7.0508 15 8.0029 14.1357 Q 8.9551 13.2715 8.9551 11.8262 Q 8.9551 9.5703 6.8164 8.7891 Q 8.6914 8.6035 9.8047 7.4512 Q 10.918 6.2988 10.918 4.5117 Q 10.918 2.4707 9.5605 1.0986 Q 8.2031 -0.2734 6.2012 -0.2734 Q 4.1113 -0.2734 2.9004 1.6016 Z M 4.248 7.8613 L 4.248 9.0039 Q 7.5586 9.0918 7.5586 11.6895 Q 7.5586 12.5879 7.0068 13.1494 Q 6.4551 13.7109 5.5371 13.7109 Q 4.2578 13.7109 3.5791 13.0078 Q 2.9004 12.3047 2.9004 10.4883 L 2.9102 4.502 Q 2.9102 2.9199 3.8672 1.9727 Q 4.8242 1.0254 6.1816 1.0254 Q 7.5977 1.0254 8.5596 2.0068 Q 9.5215 2.9883 9.5215 4.4238 Q 9.5215 5.8398 8.5498 6.8506 Q 7.5781 7.8613 4.9316 7.8613 L 4.248 7.8613 Z M 21.4395 14.7266 L 21.7324 14.7266 L 21.7324 4.7168 L 23.4707 4.7168 L 23.4707 3.3398 L 21.7324 3.3398 L 21.7324 0 L 20.2969 0 L 20.2969 3.3398 L 13.4316 3.3398 L 21.4395 14.7266 Z M 20.2969 4.7168 L 20.2969 10.7031 L 16.0684 4.7168 L 20.2969 4.7168 Z" transform="matrix(1 0 0 1 173.4961 150.25)" fill="#1C1917" />
<path d="M 12.1094 10.625 L 12.1094 0 L 10.7617 0 L 10.7617 1.8262 Q 9.9023 0.7812 8.833 0.2539 Q 7.7637 -0.2734 6.4941 -0.2734 Q 4.2383 -0.2734 2.6416 1.3623 Q 1.0449 2.998 1.0449 5.3418 Q 1.0449 7.6367 2.6562 9.2676 Q 4.2676 10.8984 6.5332 10.8984 Q 7.8418 10.8984 8.9014 10.3418 Q 9.9609 9.7852 10.7617 8.6719 L 10.7617 10.625 L 12.1094 10.625 Z M 6.6406 9.5801 Q 5.498 9.5801 4.5312 9.0186 Q 3.5645 8.457 2.9932 7.4414 Q 2.4219 6.4258 2.4219 5.293 Q 2.4219 4.1699 2.998 3.1445 Q 3.5742 2.1191 4.5459 1.5479 Q 5.5176 0.9766 6.6309 0.9766 Q 7.7539 0.9766 8.7598 1.543 Q 9.7656 2.1094 10.3076 3.0762 Q 10.8496 4.043 10.8496 5.2539 Q 10.8496 7.0996 9.6338 8.3398 Q 8.418 9.5801 6.6406 9.5801 Z M 17.3086 11.0352 L 15.8438 11.0352 Q 16.2441 12.8125 17.377 13.7695 Q 18.5098 14.7266 20.0527 14.7266 Q 21.1758 14.7266 22.1475 14.2139 Q 23.1191 13.7012 23.6514 12.832 Q 24.1836 11.9629 24.1836 11.0156 Q 24.1836 9.1602 22.3379 8.0762 Q 23.373 7.6562 24.0371 6.8457 Q 24.9746 5.7031 24.9746 4.2871 Q 24.9746 3.0664 24.3301 1.958 Q 23.6855 0.8496 22.5723 0.2441 Q 21.459 -0.3613 20.082 -0.3613 Q 18.2266 -0.3613 16.9863 0.708 Q 15.7461 1.7773 15.3652 3.8477 L 16.7715 3.8477 Q 17.1426 2.4512 17.8359 1.8262 Q 18.7246 1.0352 20.1016 1.0352 Q 21.6641 1.0352 22.6113 1.9727 Q 23.5586 2.9102 23.5586 4.1699 Q 23.5586 5.0098 23.085 5.7422 Q 22.6113 6.4746 21.8154 6.8457 Q 21.0195 7.2168 19.3496 7.3047 L 19.3496 8.623 Q 20.3359 8.623 21.1465 8.9697 Q 21.957 9.3164 22.3232 9.8535 Q 22.6895 10.3906 22.6895 11.0254 Q 22.6895 11.9629 21.9424 12.6465 Q 21.1953 13.3301 20.0527 13.3301 Q 19.125 13.3301 18.4512 12.8076 Q 17.7773 12.2852 17.3086 11.0352 Z" transform="matrix(1 0 0 1 72.627 150.25)" fill="#1C1917" />
<path d="M 2.9004 1.6016 L 2.9004 -3.8867 L 1.5234 -3.8867 L 1.5234 10.8105 Q 1.5234 13.0566 2.6855 14.0283 Q 3.8477 15 5.4297 15 Q 7.0508 15 8.0029 14.1357 Q 8.9551 13.2715 8.9551 11.8262 Q 8.9551 9.5703 6.8164 8.7891 Q 8.6914 8.6035 9.8047 7.4512 Q 10.918 6.2988 10.918 4.5117 Q 10.918 2.4707 9.5605 1.0986 Q 8.2031 -0.2734 6.2012 -0.2734 Q 4.1113 -0.2734 2.9004 1.6016 Z M 4.248 7.8613 L 4.248 9.0039 Q 7.5586 9.0918 7.5586 11.6895 Q 7.5586 12.5879 7.0068 13.1494 Q 6.4551 13.7109 5.5371 13.7109 Q 4.2578 13.7109 3.5791 13.0078 Q 2.9004 12.3047 2.9004 10.4883 L 2.9102 4.502 Q 2.9102 2.9199 3.8672 1.9727 Q 4.8242 1.0254 6.1816 1.0254 Q 7.5977 1.0254 8.5596 2.0068 Q 9.5215 2.9883 9.5215 4.4238 Q 9.5215 5.8398 8.5498 6.8506 Q 7.5781 7.8613 4.9316 7.8613 L 4.248 7.8613 Z M 15.2383 9.8633 L 13.8613 9.8633 Q 13.9199 11.9922 15.2822 13.3594 Q 16.6445 14.7266 18.6465 14.7266 Q 20.6289 14.7266 21.8545 13.4473 Q 23.0801 12.168 23.0801 10.4297 Q 23.0801 9.209 22.4941 8.1396 Q 21.9082 7.0703 20.2188 5.2441 L 16.6445 1.3867 L 23.2754 1.3867 L 23.2754 0 L 13.5195 0 L 19.0078 5.9277 Q 20.6777 7.7148 21.1807 8.5791 Q 21.6836 9.4434 21.6836 10.4004 Q 21.6836 11.6113 20.7803 12.4854 Q 19.877 13.3594 18.5684 13.3594 Q 17.1914 13.3594 16.2783 12.4414 Q 15.3652 11.5234 15.2383 9.8633 Z" transform="matrix(1 0 0 1 273.4961 350.25)" fill="#D9D9D9" />
<path d="M 2.9004 1.6016 L 2.9004 -3.8867 L 1.5234 -3.8867 L 1.5234 10.8105 Q 1.5234 13.0566 2.6855 14.0283 Q 3.8477 15 5.4297 15 Q 7.0508 15 8.0029 14.1357 Q 8.9551 13.2715 8.9551 11.8262 Q 8.9551 9.5703 6.8164 8.7891 Q 8.6914 8.6035 9.8047 7.4512 Q 10.918 6.2988 10.918 4.5117 Q 10.918 2.4707 9.5605 1.0986 Q 8.2031 -0.2734 6.2012 -0.2734 Q 4.1113 -0.2734 2.9004 1.6016 Z M 4.248 7.8613 L 4.248 9.0039 Q 7.5586 9.0918 7.5586 11.6895 Q 7.5586 12.5879 7.0068 13.1494 Q 6.4551 13.7109 5.5371 13.7109 Q 4.2578 13.7109 3.5791 13.0078 Q 2.9004 12.3047 2.9004 10.4883 L 2.9102 4.502 Q 2.9102 2.9199 3.8672 1.9727 Q 4.8242 1.0254 6.1816 1.0254 Q 7.5977 1.0254 8.5596 2.0068 Q 9.5215 2.9883 9.5215 4.4238 Q 9.5215 5.8398 8.5498 6.8506 Q 7.5781 7.8613 4.9316 7.8613 L 4.248 7.8613 Z M 21.4395 14.7266 L 21.7324 14.7266 L 21.7324 4.7168 L 23.4707 4.7168 L 23.4707 3.3398 L 21.7324 3.3398 L 21.7324 0 L 20.2969 0 L 20.2969 3.3398 L 13.4316 3.3398 L 21.4395 14.7266 Z M 20.2969 4.7168 L 20.2969 10.7031 L 16.0684 4.7168 L 20.2969 4.7168 Z" transform="matrix(1 0 0 1 173.4961 350.25)" fill="#D9D9D9" />
<path d="M 12.1094 10.625 L 12.1094 0 L 10.7617 0 L 10.7617 1.8262 Q 9.9023 0.7812 8.833 0.2539 Q 7.7637 -0.2734 6.4941 -0.2734 Q 4.2383 -0.2734 2.6416 1.3623 Q 1.0449 2.998 1.0449 5.3418 Q 1.0449 7.6367 2.6562 9.2676 Q 4.2676 10.8984 6.5332 10.8984 Q 7.8418 10.8984 8.9014 10.3418 Q 9.9609 9.7852 10.7617 8.6719 L 10.7617 10.625 L 12.1094 10.625 Z M 6.6406 9.5801 Q 5.498 9.5801 4.5312 9.0186 Q 3.5645 8.457 2.9932 7.4414 Q 2.4219 6.4258 2.4219 5.293 Q 2.4219 4.1699 2.998 3.1445 Q 3.5742 2.1191 4.5459 1.5479 Q 5.5176 0.9766 6.6309 0.9766 Q 7.7539 0.9766 8.7598 1.543 Q 9.7656 2.1094 10.3076 3.0762 Q 10.8496 4.043 10.8496 5.2539 Q 10.8496 7.0996 9.6338 8.3398 Q 8.418 9.5801 6.6406 9.5801 Z M 21.9961 14.7266 L 23.1777 13.9551 L 19.3008 8.0762 Q 20.082 8.3398 20.7656 8.3398 Q 22.4746 8.3398 23.666 7.1045 Q 24.8574 5.8691 24.8574 4.0625 Q 24.8574 2.8223 24.2812 1.8213 Q 23.7051 0.8203 22.6455 0.2295 Q 21.5859 -0.3613 20.3652 -0.3613 Q 19.1836 -0.3613 18.1729 0.21 Q 17.1621 0.7812 16.5859 1.8164 Q 16.0098 2.8516 16.0098 4.0332 Q 16.0098 4.9121 16.3662 5.8838 Q 16.7227 6.8555 17.6406 8.2227 L 21.9961 14.7266 Z M 20.4238 7.0801 Q 19.1738 7.0801 18.29 6.1963 Q 17.4062 5.3125 17.4062 4.0527 Q 17.4062 2.8027 18.29 1.9189 Q 19.1738 1.0352 20.4238 1.0352 Q 21.6738 1.0352 22.5576 1.9189 Q 23.4414 2.8027 23.4414 4.0527 Q 23.4414 5.3125 22.5576 6.1963 Q 21.6738 7.0801 20.4238 7.0801 Z" transform="matrix(1 0 0 1 72.627 350.25)" fill="#D9D9D9" />
<path d="M 12.1094 10.625 L 12.1094 0 L 10.7617 0 L 10.7617 1.8262 Q 9.9023 0.7812 8.833 0.2539 Q 7.7637 -0.2734 6.4941 -0.2734 Q 4.2383 -0.2734 2.6416 1.3623 Q 1.0449 2.998 1.0449 5.3418 Q 1.0449 7.6367 2.6562 9.2676 Q 4.2676 10.8984 6.5332 10.8984 Q 7.8418 10.8984 8.9014 10.3418 Q 9.9609 9.7852 10.7617 8.6719 L 10.7617 10.625 L 12.1094 10.625 Z M 6.6406 9.5801 Q 5.498 9.5801 4.5312 9.0186 Q 3.5645 8.457 2.9932 7.4414 Q 2.4219 6.4258 2.4219 5.293 Q 2.4219 4.1699 2.998 3.1445 Q 3.5742 2.1191 4.5459 1.5479 Q 5.5176 0.9766 6.6309 0.9766 Q 7.7539 0.9766 8.7598 1.543 Q 9.7656 2.1094 10.3076 3.0762 Q 10.8496 4.043 10.8496 5.2539 Q 10.8496 7.0996 9.6338 8.3398 Q 8.418 9.5801 6.6406 9.5801 Z M 17.3086 11.0352 L 15.8438 11.0352 Q 16.2441 12.8125 17.377 13.7695 Q 18.5098 14.7266 20.0527 14.7266 Q 21.1758 14.7266 22.1475 14.2139 Q 23.1191 13.7012 23.6514 12.832 Q 24.1836 11.9629 24.1836 11.0156 Q 24.1836 9.1602 22.3379 8.0762 Q 23.373 7.6562 24.0371 6.8457 Q 24.9746 5.7031 24.9746 4.2871 Q 24.9746 3.0664 24.3301 1.958 Q 23.6855 0.8496 22.5723 0.2441 Q 21.459 -0.3613 20.082 -0.3613 Q 18.2266 -0.3613 16.9863 0.708 Q 15.7461 1.7773 15.3652 3.8477 L 16.7715 3.8477 Q 17.1426 2.4512 17.8359 1.8262 Q 18.7246 1.0352 20.1016 1.0352 Q 21.6641 1.0352 22.6113 1.9727 Q 23.5586 2.9102 23.5586 4.1699 Q 23.5586 5.0098 23.085 5.7422 Q 22.6113 6.4746 21.8154 6.8457 Q 21.0195 7.2168 19.3496 7.3047 L 19.3496 8.623 Q 20.3359 8.623 21.1465 8.9697 Q 21.957 9.3164 22.3232 9.8535 Q 22.6895 10.3906 22.6895 11.0254 Q 22.6895 11.9629 21.9424 12.6465 Q 21.1953 13.3301 20.0527 13.3301 Q 19.125 13.3301 18.4512 12.8076 Q 17.7773 12.2852 17.3086 11.0352 Z" transform="matrix(0 1 -1 0 225 77.877)" fill="#1C1917" />
<path d="M 12.1094 10.625 L 12.1094 0 L 10.7617 0 L 10.7617 1.8262 Q 9.9023 0.7812 8.833 0.2539 Q 7.7637 -0.2734 6.4941 -0.2734 Q 4.2383 -0.2734 2.6416 1.3623 Q 1.0449 2.998 1.0449 5.3418 Q 1.0449 7.6367 2.6562 9.2676 Q 4.2676 10.8984 6.5332 10.8984 Q 7.8418 10.8984 8.9014 10.3418 Q 9.9609 9.7852 10.7617 8.6719 L 10.7617 10.625 L 12.1094 10.625 Z M 6.6406 9.5801 Q 5.498 9.5801 4.5312 9.0186 Q 3.5645 8.457 2.9932 7.4414 Q 2.4219 6.4258 2.4219 5.293 Q 2.4219 4.1699 2.998 3.1445 Q 3.5742 2.1191 4.5459 1.5479 Q 5.5176 0.9766 6.6309 0.9766 Q 7.7539 0.9766 8.7598 1.543 Q 9.7656 2.1094 10.3076 3.0762 Q 10.8496 4.043 10.8496 5.2539 Q 10.8496 7.0996 9.6338 8.3398 Q 8.418 9.5801 6.6406 9.5801 Z M 21.9961 14.7266 L 23.1777 13.9551 L 19.3008 8.0762 Q 20.082 8.3398 20.7656 8.3398 Q 22.4746 8.3398 23.666 7.1045 Q 24.8574 5.8691 24.8574 4.0625 Q 24.8574 2.8223 24.2812 1.8213 Q 23.7051 0.8203 22.6455 0.2295 Q 21.5859 -0.3613 20.3652 -0.3613 Q 19.1836 -0.3613 18.1729 0.21 Q 17.1621 0.7812 16.5859 1.8164 Q 16.0098 2.8516 16.0098 4.0332 Q 16.0098 4.9121 16.3662 5.8838 Q 16.7227 6.8555 17.6406 8.2227 L 21.9961 14.7266 Z M 20.4238 7.0801 Q 19.1738 7.0801 18.29 6.1963 Q 17.4062 5.3125 17.4062 4.0527 Q 17.4062 2.8027 18.29 1.9189 Q 19.1738 1.0352 20.4238 1.0352 Q 21.6738 1.0352 22.5576 1.9189 Q 23.4414 2.8027 23.4414 4.0527 Q 23.4414 5.3125 22.5576 6.1963 Q 21.6738 7.0801 20.4238 7.0801 Z" transform="matrix(0.7071 -0.7071 0.7071 0.7071 383.322 306.0701)" fill="#D9D9D9" />
<path d="M 2.9004 1.6016 L 2.9004 -3.8867 L 1.5234 -3.8867 L 1.5234 10.8105 Q 1.5234 13.0566 2.6855 14.0283 Q 3.8477 15 5.4297 15 Q 7.0508 15 8.0029 14.1357 Q 8.9551 13.2715 8.9551 11.8262 Q 8.9551 9.5703 6.8164 8.7891 Q 8.6914 8.6035 9.8047 7.4512 Q 10.918 6.2988 10.918 4.5117 Q 10.918 2.4707 9.5605 1.0986 Q 8.2031 -0.2734 6.2012 -0.2734 Q 4.1113 -0.2734 2.9004 1.6016 Z M 4.248 7.8613 L 4.248 9.0039 Q 7.5586 9.0918 7.5586 11.6895 Q 7.5586 12.5879 7.0068 13.1494 Q 6.4551 13.7109 5.5371 13.7109 Q 4.2578 13.7109 3.5791 13.0078 Q 2.9004 12.3047 2.9004 10.4883 L 2.9102 4.502 Q 2.9102 2.9199 3.8672 1.9727 Q 4.8242 1.0254 6.1816 1.0254 Q 7.5977 1.0254 8.5596 2.0068 Q 9.5215 2.9883 9.5215 4.4238 Q 9.5215 5.8398 8.5498 6.8506 Q 7.5781 7.8613 4.9316 7.8613 L 4.248 7.8613 Z M 21.4395 14.7266 L 21.7324 14.7266 L 21.7324 4.7168 L 23.4707 4.7168 L 23.4707 3.3398 L 21.7324 3.3398 L 21.7324 0 L 20.2969 0 L 20.2969 3.3398 L 13.4316 3.3398 L 21.4395 14.7266 Z M 20.2969 4.7168 L 20.2969 10.7031 L 16.0684 4.7168 L 20.2969 4.7168 Z" transform="matrix(1 0 0 1 373.4961 250.25)" fill="#D9D9D9" />
<path d="M 12.1094 10.625 L 12.1094 0 L 10.7617 0 L 10.7617 1.8262 Q 9.9023 0.7812 8.833 0.2539 Q 7.7637 -0.2734 6.4941 -0.2734 Q 4.2383 -0.2734 2.6416 1.3623 Q 1.0449 2.998 1.0449 5.3418 Q 1.0449 7.6367 2.6562 9.2676 Q 4.2676 10.8984 6.5332 10.8984 Q 7.8418 10.8984 8.9014 10.3418 Q 9.9609 9.7852 10.7617 8.6719 L 10.7617 10.625 L 12.1094 10.625 Z M 6.6406 9.5801 Q 5.498 9.5801 4.5312 9.0186 Q 3.5645 8.457 2.9932 7.4414 Q 2.4219 6.4258 2.4219 5.293 Q 2.4219 4.1699 2.998 3.1445 Q 3.5742 2.1191 4.5459 1.5479 Q 5.5176 0.9766 6.6309 0.9766 Q 7.7539 0.9766 8.7598 1.543 Q 9.7656 2.1094 10.3076 3.0762 Q 10.8496 4.043 10.8496 5.2539 Q 10.8496 7.0996 9.6338 8.3398 Q 8.418 9.5801 6.6406 9.5801 Z M 21.9961 14.7266 L 23.1777 13.9551 L 19.3008 8.0762 Q 20.082 8.3398 20.7656 8.3398 Q 22.4746 8.3398 23.666 7.1045 Q 24.8574 5.8691 24.8574 4.0625 Q 24.8574 2.8223 24.2812 1.8213 Q 23.7051 0.8203 22.6455 0.2295 Q 21.5859 -0.3613 20.3652 -0.3613 Q 19.1836 -0.3613 18.1729 0.21 Q 17.1621 0.7812 16.5859 1.8164 Q 16.0098 2.8516 16.0098 4.0332 Q 16.0098 4.9121 16.3662 5.8838 Q 16.7227 6.8555 17.6406 8.2227 L 21.9961 14.7266 Z M 20.4238 7.0801 Q 19.1738 7.0801 18.29 6.1963 Q 17.4062 5.3125 17.4062 4.0527 Q 17.4062 2.8027 18.29 1.9189 Q 19.1738 1.0352 20.4238 1.0352 Q 21.6738 1.0352 22.5576 1.9189 Q 23.4414 2.8027 23.4414 4.0527 Q 23.4414 5.3125 22.5576 6.1963 Q 21.6738 7.0801 20.4238 7.0801 Z" transform="matrix(0 -1 1 0 645 302.623)" fill="#D9D9D9" />
</g>
</svg>
