<svg xmlns="http://www.w3.org/2000/svg" xmlns:xlink="http://www.w3.org/1999/xlink" xmlns:inkscape="http://www.inkscape.org/namespaces/inkscape" version="1.1" width="700" height="510" viewBox="0 0 700 510"><style>svg{background:white}</style>
<defs>
<path id="font_1_1" d="M.14501953 .080078128V-.19433594H.076171878V.54052737C.076171878 .61539718 .09554037 .6690267 .13427735 .701416 .17301433 .73380538 .21875 .75 .27148438 .75 .32552085 .75 .3684082 .7356364 .40014649 .7069092 .43188478 .67818197 .4477539 .639801 .4477539 .59176638 .4477539 .51678469 .41210938 .4663086 .3408203 .44033814 .4033203 .43414308 .453125 .4117991 .49023438 .37330628 .52734377 .3348236 .54589846 .28574119 .54589846 .22605896 .54589846 .15789287 .5232747 .1008962 .47802735 .05506897 .43277995 .00924174 .37679038-.013671875 .3100586-.013671875 .24039714-.013671875 .18538411 .017578125 .14501953 .080078128M.21240235 .3935547V.45117188C.3227539 .4540914 .3779297 .49866233 .3779297 .58488467 .3779297 .6147105 .36873374 .63894149 .3503418 .6575775 .33194987 .67622378 .30745445 .6855469 .27685548 .6855469 .23421224 .6855469 .20157878 .6738383 .17895508 .65042117 .15633138 .62701418 .14501953 .58506777 .14501953 .5245819L.14550781 .22558594C.14550781 .17285156 .16145833 .13069661 .19335938 .099121097 .22526042 .06754557 .26383464 .051757814 .30908204 .051757814 .35628257 .051757814 .3959147 .068115238 .42797853 .10083008 .46004234 .13354492 .47607423 .17382813 .47607423 .22167969 .47607423 .26888023 .45987956 .30932618 .42749024 .34301759 .39510093 .37670899 .3347982 .3935547 .24658203 .3935547H.21240235Z"/>
<path id="font_1_23" d="M.42578126 .7363281H.4404297V.23535156H.52734377V.16699219H.4404297V0H.36865235V.16699219H.025390625L.42578126 .7363281M.36865235 .23535156V.53430178L.15722656 .23535156H.36865235Z"/>
<path id="font_1_2" d="M.60546877 .53125V0H.53808596V.091308597C.5094401 .056477865 .47729493 .030273438 .4416504 .0126953129 .40600587-.0048828127 .36702476-.013671875 .32470704-.013671875 .24951172-.013671875 .18530274 .013590495 .13208008 .068115238 .07885742 .12263998 .052246095 .18896485 .052246095 .26708985 .052246095 .34358726 .07910156 .40901695 .1328125 .4633789 .18652344 .5177409 .2511393 .5449219 .32666017 .5449219 .37027995 .5449219 .40974937 .53564456 .44506837 .51708987 .48038737 .49853517 .51139327 .47070313 .53808596 .43359376V.53125H.60546877M.33203126 .47851563C.2939453 .47851563 .25878907 .4691874 .2265625 .450531 .19433594 .43188478 .16870117 .40569053 .1496582 .37194825 .13061524 .33820597 .12109375 .30252076 .12109375 .26489259 .12109375 .22757976 .13069661 .19188945 .14990235 .15782166 .16910808 .12376404 .1949056 .09724426 .22729492 .07826233 .25968424 .05929057 .2944336 .049804689 .33154298 .049804689 .36897788 .049804689 .40445964 .059209188 .43798829 .07801819 .47151695 .096837367 .49731446 .12230428 .51538088 .15441895 .53344729 .18654378 .54248049 .22271729 .54248049 .26293946 .54248049 .32425944 .5222168 .3755188 .48168946 .41671754 .4411621 .45791627 .39127604 .47851563 .33203126 .47851563Z"/>
<path id="font_1_22" d="M.13232422 .55078127H.05908203C.07242838 .61034139 .09798177 .6561534 .13574219 .68821719 .17350261 .72029116 .21809896 .7363281 .26953126 .7363281 .30696617 .7363281 .34187828 .72778829 .37426759 .7107086 .4066569 .6936391 .43172203 .67062887 .4494629 .64167788 .46720378 .612737 .47607423 .5824941 .47607423 .5509491 .47607423 .489151 .4453125 .4402008 .38378907 .4040985 .41829429 .3901113 .4466146 .36961366 .46875 .3426056 .5 .30454 .515625 .2619171 .515625 .21473694 .515625 .17406719 .5048828 .13526409 .48339845 .09832764 .46191407 .061401369 .4326172 .032852174 .3955078 .012680054 .35839845-.0074920656 .31689454-.017578125 .2709961-.017578125 .20914714-.017578125 .15755208 .00028483073 .11621094 .036010744 .07486979 .071736659 .047851564 .124186199 .03515625 .19335938H.10546875C.11783854 .14680989 .13557942 .11311849 .1586914 .092285159 .1883138 .06591797 .22607422 .052734376 .27197267 .052734376 .324056 .052734376 .3658854 .06830851 .39746095 .09945679 .42903648 .13061524 .44482423 .16712444 .44482423 .20898438 .44482423 .23688762 .43693034 .26300559 .42114259 .28733827 .40535484 .31168113 .38419596 .3300171 .35766603 .3423462 .33113609 .35468547 .29003907 .36231486 .234375 .36523438V.43164063C.2672526 .43164063 .29720054 .4373932 .32421876 .44889833 .35123698 .4604136 .3708496 .4750824 .38305665 .49290467 .39526368 .5107371 .4013672 .53018698 .4013672 .5512543 .4013672 .5823822 .38891603 .6092885 .36401368 .63197329 .33911134 .65466818 .3076172 .6660156 .26953126 .6660156 .23860677 .6660156 .21191406 .6572673 .18945313 .6397705 .16699219 .62228396 .14794922 .59262087 .13232422 .55078127Z"/>
<path id="font_1_21" d="M.115722659 .49316407H.046875C.048828126 .5641276 .072509769 .6223958 .11791992 .66796877 .16333008 .7135417 .21940105 .7363281 .2861328 .7363281 .35221354 .7363281 .40568034 .7149658 .4465332 .6722412 .48738609 .6295166 .5078125 .5791219 .5078125 .5210571 .5078125 .4802958 .49804688 .44205729 .47851563 .40634156 .45898438 .37062583 .4210612 .32227073 .3647461 .26127626L.18603516 .068359378H.5175781V0H.029785157L.30419923 .29577638C.35986329 .3554484 .39607749 .39970909 .4128418 .42855836 .4296061 .45741783 .43798829 .4878235 .43798829 .5197754 .43798829 .5602112 .42293296 .5950165 .39282228 .6241913 .36271159 .6533763 .32584635 .66796877 .28222657 .66796877 .23632813 .66796877 .19816081 .65266928 .16772461 .6220703 .1372884 .5914714 .11995443 .5485026 .115722659 .49316407Z"/>
<path id="font_1_25" d="M.36669923 .7363281 .42578126 .6977539 .2319336 .40376283C.25797526 .4125824 .2823893 .4169922 .30517579 .4169922 .36214195 .4169922 .41048179 .39642335 .4501953 .35528565 .48990885 .3141581 .5097656 .2635193 .5097656 .20336914 .5097656 .16206868 .5001628 .12475586 .48095704 .091430667 .4617513 .05810547 .43448893 .031606039 .39916993 .011932373 .36385093-.0077412927 .32584635-.017578125 .28515626-.017578125 .24576824-.017578125 .20922852-.008066813 .17553711 .010955811 .1418457 .029978434 .11539713 .056722005 .096191409 .09118652 .07698568 .12565105 .06738281 .16255696 .06738281 .2019043 .06738281 .23116048 .07332357 .2619629 .08520508 .29431153 .097086589 .32667033 .11832682 .36561076 .14892578 .4111328L.36669923 .7363281M.28808595 .35351563C.24641927 .35351563 .21085613 .33885703 .18139649 .3095398 .15193685 .28022257 .13720703 .2446696 .13720703 .20288086 .13720703 .16141765 .15193685 .12602742 .18139649 .096710208 .21085613 .06739298 .24641927 .052734376 .28808595 .052734376 .3297526 .052734376 .36531578 .06739298 .3947754 .096710208 .42423503 .12602742 .43896485 .16141765 .43896485 .20288086 .43896485 .2446696 .42423503 .28022257 .3947754 .3095398 .36531578 .33885703 .3297526 .35351563 .28808595 .35351563Z"/>
</defs>
<path transform="matrix(1,0,0,1,650,205)" stroke-width="4" stroke-linecap="round" stroke-linejoin="round" fill="none" stroke="#d9d9d9" d="M-200 0H-100-200Z"/>
<path transform="matrix(1,0,0,1,650,205)" stroke-width="4" stroke-linecap="round" stroke-linejoin="round" fill="none" stroke="#d9d9d9" d="M-400-100H-300-400Z"/>
<path transform="matrix(1,0,0,1,650,205)" stroke-width="4" stroke-linecap="round" stroke-linejoin="round" fill="none" stroke="#d9d9d9" d="M-500-100H-400-500Z"/>
<path transform="matrix(1,0,0,1,650,205)" stroke-width="4" stroke-linecap="butt" stroke-miterlimit="10" stroke-linejoin="miter" fill="none" stroke="#d9d9d9" d="M0-100V0-100Z"/>
<path transform="matrix(1,0,0,1,650,205)" stroke-width="4" stroke-linecap="round" stroke-linejoin="round" fill="none" stroke="#d9d9d9" d="M-300 0H-200-300Z"/>
<path transform="matrix(1,0,0,1,650,205)" stroke-width="4" stroke-linecap="round" stroke-linejoin="round" fill="none" stroke="#1c1917" d="M-600 100H-500-600Z"/>
<path transform="matrix(1,0,0,1,650,205)" stroke-width="4" stroke-linecap="butt" stroke-miterlimit="10" stroke-linejoin="miter" fill="none" stroke="#1c1917" d="M-400 200V100 200Z"/>
<path transform="matrix(1,0,0,1,650,205)" stroke-width="4" stroke-linecap="round" stroke-linejoin="round" fill="none" stroke="#d9d9d9" d="M-600-100H-500-600Z"/>
<path transform="matrix(1,0,0,1,650,205)" stroke-width="4" stroke-linecap="round" stroke-linejoin="round" fill="none" stroke="#d9d9d9" d="M-100 0H0-100Z"/>
<path transform="matrix(1,0,0,1,650,205)" stroke-width="4" stroke-linecap="round" stroke-linejoin="round" fill="none" stroke="#d9d9d9" d="M-300-100-200 0-300-100Z"/>
<path transform="matrix(1,0,0,1,650,205)" stroke-width="4" stroke-linecap="round" stroke-linejoin="round" fill="none" stroke="#d9d9d9" d="M-400 100H-300-400Z"/>
<path transform="matrix(1,0,0,1,650,205)" stroke-width="4" stroke-linecap="round" stroke-linejoin="round" fill="none" stroke="#d9d9d9" d="M-300 100-200 0-300 100Z"/>
<path transform="matrix(1,0,0,1,650,205)" stroke-width="4" stroke-linecap="round" stroke-linejoin="round" fill="none" stroke="#1c1917" d="M-500 100H-400-500Z"/>
<path transform="matrix(1,0,0,1,650,205)" d="M-175 0C-175 13.80712-186.1929 25-200 25-213.8071 25-225 13.80712-225 0-225-13.80712-213.8071-25-200-25-186.1929-25-175-13.80712-175 0" fill="#cde9df" fill-rule="evenodd"/>
<path transform="matrix(1,0,0,1,650,205)" stroke-width="2" stroke-linecap="round" stroke-miterlimit="10" stroke-linejoin="miter" fill="none" stroke="#d9d9d9" d="M-175 0C-175 13.80712-186.1929 25-200 25-213.8071 25-225 13.80712-225 0-225-13.80712-213.8071-25-200-25-186.1929-25-175-13.80712-175 0"/>
<path transform="matrix(1,0,0,1,650,205)" d="M-275 100C-275 113.8071-286.1929 125-300 125-313.8071 125-325 113.8071-325 100-325 86.19288-313.8071 75-300 75-286.1929 75-275 86.19288-275 100" fill="#cde9df" fill-rule="evenodd"/>
<path transform="matrix(1,0,0,1,650,205)" stroke-width="2" stroke-linecap="round" stroke-miterlimit="10" stroke-linejoin="miter" fill="none" stroke="#d9d9d9" d="M-275 100C-275 113.8071-286.1929 125-300 125-313.8071 125-325 113.8071-325 100-325 86.19288-313.8071 75-300 75-286.1929 75-275 86.19288-275 100"/>
<path transform="matrix(1,0,0,1,650,205)" d="M-475 100C-475 113.8071-486.1929 125-500 125-513.8071 125-525 113.8071-525 100-525 86.19288-513.8071 75-500 75-486.1929 75-475 86.19288-475 100" fill="#fcc326" fill-rule="evenodd"/>
<path transform="matrix(1,0,0,1,650,205)" stroke-width="2" stroke-linecap="round" stroke-miterlimit="10" stroke-linejoin="miter" fill="none" stroke="#1c1917" d="M-475 100C-475 113.8071-486.1929 125-500 125-513.8071 125-525 113.8071-525 100-525 86.19288-513.8071 75-500 75-486.1929 75-475 86.19288-475 100"/>
<path transform="matrix(1,0,0,1,650,205)" d="M-275-100C-275-86.19288-286.1929-75-300-75-313.8071-75-325-86.19288-325-100-325-113.8071-313.8071-125-300-125-286.1929-125-275-113.8071-275-100" fill="#cde9df" fill-rule="evenodd"/>
<path transform="matrix(1,0,0,1,650,205)" stroke-width="2" stroke-linecap="round" stroke-miterlimit="10" stroke-linejoin="miter" fill="none" stroke="#d9d9d9" d="M-275-100C-275-86.19288-286.1929-75-300-75-313.8071-75-325-86.19288-325-100-325-113.8071-313.8071-125-300-125-286.1929-125-275-113.8071-275-100"/>
<path transform="matrix(1,0,0,1,650,205)" d="M-475-100C-475-86.19288-486.1929-75-500-75-513.8071-75-525-86.19288-525-100-525-113.8071-513.8071-125-500-125-486.1929-125-475-113.8071-475-100" fill="#fff6de" fill-rule="evenodd"/>
<path transform="matrix(1,0,0,1,650,205)" stroke-width="2" stroke-linecap="round" stroke-miterlimit="10" stroke-linejoin="miter" fill="none" stroke="#d9d9d9" d="M-475-100C-475-86.19288-486.1929-75-500-75-513.8071-75-525-86.19288-525-100-525-113.8071-513.8071-125-500-125-486.1929-125-475-113.8071-475-100"/>
<path transform="matrix(1,0,0,1,650,205)" d="M-25-25H25V25H-25Z" fill="#cde7ef" fill-rule="evenodd"/>
<path transform="matrix(1,0,0,1,650,205)" stroke-width="2" stroke-linecap="round" stroke-linejoin="round" fill="none" stroke="#d9d9d9" d="M-25-25H25V25H-25Z"/>
<path transform="matrix(1,0,0,1,650,205)" d="M-125-25H-75V25H-125Z" fill="#cde7ef" fill-rule="evenodd"/>
<path transform="matrix(1,0,0,1,650,205)" stroke-width="2" stroke-linecap="round" stroke-linejoin="round" fill="none" stroke="#d9d9d9" d="M-125-25H-75V25H-125Z"/>
<path transform="matrix(1,0,0,1,650,205)" d="M-425 75H-375V125H-425Z" fill="#0385ae" fill-rule="evenodd"/>
<path transform="matrix(1,0,0,1,650,205)" stroke-width="2" stroke-linecap="round" stroke-linejoin="round" fill="none" stroke="#1c1917" d="M-425 75H-375V125H-425Z"/>
<path transform="matrix(1,0,0,1,650,205)" d="M-425-125H-375V-75H-425Z" fill="#cde7ef" fill-rule="evenodd"/>
<path transform="matrix(1,0,0,1,650,205)" stroke-width="2" stroke-linecap="round" stroke-linejoin="round" fill="none" stroke="#d9d9d9" d="M-425-125H-375V-75H-425Z"/>
<path transform="matrix(1,0,0,1,650,205)" d="M-325-25H-275V25H-325Z" fill="#cde7ef" fill-rule="evenodd"/>
<path transform="matrix(1,0,0,1,650,205)" stroke-width="2" stroke-linecap="round" stroke-linejoin="round" fill="none" stroke="#d9d9d9" d="M-325-25H-275V25H-325Z"/>
<path transform="matrix(1,0,0,1,650,205)" d="M-600 125-575 100-600 75-625 100-600 125Z" fill="#a15989" fill-rule="evenodd"/>
<path transform="matrix(1,0,0,1,650,205)" stroke-width="2" stroke-linecap="round" stroke-linejoin="round" fill="none" stroke="#1c1917" d="M-600 125-575 100-600 75-625 100-600 125Z"/>
<path transform="matrix(1,0,0,1,650,205)" d="M-425 221.6506-400 178.3494-375 221.6506H-425Z" fill="#c23537" fill-rule="evenodd"/>
<path transform="matrix(1,0,0,1,650,205)" stroke-width="2" stroke-linecap="round" stroke-linejoin="round" fill="none" stroke="#1c1917" d="M-425 221.6506-400 178.3494-375 221.6506H-425Z"/>
<path transform="matrix(1,0,0,1,650,205)" d="M-600-75-575-100-600-125-625-100-600-75Z" fill="#eef8fb" fill-rule="evenodd"/>
<path transform="matrix(1,0,0,1,650,205)" stroke-width="2" stroke-linecap="round" stroke-linejoin="round" fill="none" stroke="#d9d9d9" d="M-600-75-575-100-600-125-625-100-600-75Z"/>
<path transform="matrix(1,0,0,1,650,205)" d="M-25-78.34936 0-121.6506 25-78.34936H-25Z" fill="#f7e0e0" fill-rule="evenodd"/>
<path transform="matrix(1,0,0,1,650,205)" stroke-width="2" stroke-linecap="round" stroke-linejoin="round" fill="none" stroke="#d9d9d9" d="M-25-78.34936 0-121.6506 25-78.34936H-25Z"/>
<use data-text="&#x03b2;" xlink:href="#font_1_1" transform="matrix(20,0,0,-20,588.4961,195)" fill="#d9d9d9"/>
<use data-text="4" xlink:href="#font_1_23" transform="matrix(20,0,0,-20,601.4161,195)" fill="#d9d9d9"/>
<use data-text="&#x03b2;" xlink:href="#font_1_1" transform="matrix(20,0,0,-20,488.4961,195)" fill="#d9d9d9"/>
<use data-text="4" xlink:href="#font_1_23" transform="matrix(20,0,0,-20,501.4161,195)" fill="#d9d9d9"/>
<use data-text="&#x03b1;" xlink:href="#font_1_2" transform="matrix(14.14214,-14.14214,-14.14214,-14.14214,384.1798,256.678)" fill="#d9d9d9"/>
<use data-text="3" xlink:href="#font_1_22" transform="matrix(14.14214,-14.14214,-14.14214,-14.14214,394.546,246.31182)" fill="#d9d9d9"/>
<use data-text="&#x03b2;" xlink:href="#font_1_1" transform="matrix(20,0,0,-20,288.4961,295)" fill="#d9d9d9"/>
<use data-text="2" xlink:href="#font_1_21" transform="matrix(20,0,0,-20,301.4161,295)" fill="#d9d9d9"/>
<use data-text="&#x03b2;" xlink:href="#font_1_1" transform="matrix(20,0,0,-20,188.4961,295)" fill="#1c1917"/>
<use data-text="4" xlink:href="#font_1_23" transform="matrix(20,0,0,-20,201.41609,295)" fill="#1c1917"/>
<use data-text="&#x03b1;" xlink:href="#font_1_2" transform="matrix(20,0,0,-20,87.627017,295)" fill="#1c1917"/>
<use data-text="3" xlink:href="#font_1_22" transform="matrix(20,0,0,-20,102.28702,295)" fill="#1c1917"/>
<use data-text="&#x03b2;" xlink:href="#font_1_1" transform="matrix(20,0,0,-20,288.4961,95)" fill="#d9d9d9"/>
<use data-text="2" xlink:href="#font_1_21" transform="matrix(20,0,0,-20,301.4161,95)" fill="#d9d9d9"/>
<use data-text="&#x03b2;" xlink:href="#font_1_1" transform="matrix(20,0,0,-20,188.4961,95)" fill="#d9d9d9"/>
<use data-text="4" xlink:href="#font_1_23" transform="matrix(20,0,0,-20,201.41609,95)" fill="#d9d9d9"/>
<use data-text="&#x03b1;" xlink:href="#font_1_2" transform="matrix(20,0,0,-20,87.627017,95)" fill="#d9d9d9"/>
<use data-text="6" xlink:href="#font_1_25" transform="matrix(20,0,0,-20,102.28702,95)" fill="#d9d9d9"/>
<use data-text="&#x03b1;" xlink:href="#font_1_2" transform="matrix(0,-20,-20,-0,240,367.373)" fill="#1c1917"/>
<use data-text="3" xlink:href="#font_1_22" transform="matrix(0,-20,-20,-0,240,352.71299)" fill="#1c1917"/>
<use data-text="&#x03b1;" xlink:href="#font_1_2" transform="matrix(14.14214,14.14214,14.14214,-14.14214,398.32203,139.17987)" fill="#d9d9d9"/>
<use data-text="6" xlink:href="#font_1_25" transform="matrix(14.14214,14.14214,14.14214,-14.14214,408.6882,149.54607)" fill="#d9d9d9"/>
<use data-text="&#x03b2;" xlink:href="#font_1_1" transform="matrix(20,0,0,-20,388.4961,195)" fill="#d9d9d9"/>
<use data-text="4" xlink:href="#font_1_23" transform="matrix(20,0,0,-20,401.4161,195)" fill="#d9d9d9"/>
<use data-text="&#x03b1;" xlink:href="#font_1_2" transform="matrix(0,20,20,0,660,142.62696)" fill="#d9d9d9"/>
<use data-text="6" xlink:href="#font_1_25" transform="matrix(0,20,20,0,660,157.28696)" fill="#d9d9d9"/>
</svg>
