<?xml version="1.0" encoding="UTF-8"?>
<svg xmlns="http://www.w3.org/2000/svg" xmlns:xlink="http://www.w3.org/1999/xlink"
     width="400" height="110" viewBox="-350.0 -55.0 400 110">
<defs>
<path d="M-100,0 L0,0" stroke-width="4.0" stroke="#000000" id="PkkKA9t60" />
<path d="M-200,0 L-100,0" stroke-width="4.0" stroke="#000000" id="PkkKA9t61" />
<path d="M-300,0 L-200,0" stroke-width="4.0" stroke="#000000" id="PkkKA9t62" />
<path d="M-150,25.0 L-50,25.0" stroke-width="0" id="PkkKA9t63" />
<path d="M-250,25.0 L-150,25.0" stroke-width="0" id="PkkKA9t64" />
</defs>
<g transform="rotate(0 -150.0 0.0)">
<use xlink:href="#PkkKA9t60" />
<text font-size="20.0" text-anchor="middle" fill="#000000" valign="middle"><textPath xlink:href="#PkkKA9t60" startOffset="50%">
<tspan dy="-0.5em">β</tspan>
</textPath></text>
<use xlink:href="#PkkKA9t61" />
<text font-size="20.0" text-anchor="middle" fill="#000000" valign="middle"><textPath xlink:href="#PkkKA9t61" startOffset="50%">
<tspan dy="-0.5em">β 4</tspan>
</textPath></text>
<use xlink:href="#PkkKA9t62" />
<text font-size="20.0" text-anchor="middle" fill="#000000" valign="middle"><textPath xlink:href="#PkkKA9t62" startOffset="50%">
<tspan dy="-0.5em"> 3</tspan>
</textPath></text>
<circle cx="0" cy="0" r="25.0" fill="none" stroke-width="2.0" stroke="none" />
<path d="M-100,25.0 L-75.0,0 L-100,-25.0 L-125.0,0 Z" fill="white" stroke="#000000" stroke-width="2.0" />
<path d="M-125.0,0 L-100,-25.0 L-75.0,0 L-125.0,0 Z" fill="#0385AE" stroke="#000000" stroke-width="0" />
<path d="M-125.0,0 L-100,-25.0 L-75.0,0" stroke-width="2.0" stroke="#000000" fill="none" />
<path d="M-125.0,0 L-75.0,0" stroke-width="2.0" stroke="#000000" fill="none" />
<use xlink:href="#PkkKA9t63" />
<text font-size="17.5" fill="#000000" text-anchor="middle"><textPath xlink:href="#PkkKA9t63" startOffset="50%"></textPath></text>
<rect x="-225.0" y="-25.0" width="50" height="50" fill="#FCC326" stroke-width="2.0" stroke="#000000" />
<use xlink:href="#PkkKA9t64" />
<text font-size="17.5" fill="#000000" text-anchor="middle"><textPath xlink:href="#PkkKA9t64" startOffset="50%">
<tspan dy="-3.15em">4S</tspan>
</textPath></text>
<circle cx="-300" cy="0" r="25.0" fill="none" stroke-width="2.0" stroke="none" />
<g transform="rotate(-0.0 -260.0 0.0)">
<path d="M-260.0,37.5 L-260.0,-37.5" stroke-width="2.0" stroke="#000000" />
<path d="M-261.0,-37.5 L-247.5,-37.5" stroke-width="2.0" stroke="#000000" />
<path d="M-261.0,37.5 L-247.5,37.5" stroke-width="2.0" stroke="#000000" />
</g>
<g transform="rotate(0 -40.0 0.0)">
<path d="M-40.0,37.5 L-40.0,-37.5" stroke-width="2.0" stroke="#000000" />
<path d="M-39.0,-37.5 L-52.5,-37.5" stroke-width="2.0" stroke="#000000" />
<path d="M-39.0,37.5 L-52.5,37.5" stroke-width="2.0" stroke="#000000" />
</g>
<text x="-38.00000000000001" y="52.5" font-size="17.5" text-anchor="start" fill="#000000">n = 2-3</text>
</g>
</svg>